<svg width="307" height="271" viewBox="0 0 307 271" fill="none" xmlns="http://www.w3.org/2000/svg">
<path d="M223.196 243.642C229.842 233.697 232.057 220.996 237.325 210.067C247.171 189.538 266.568 177.033 280.254 159.409C296.845 138.092 304.672 107.815 297.78 80.7381C290.839 53.6613 267.996 31.606 242.543 30.7691C233.239 30.4737 224.082 32.7876 214.876 34.0183C201.928 35.7414 188.587 35.2983 176.082 31.163C167.664 28.5045 159.738 24.123 151.467 20.7753C124.341 9.74768 87.1718 8.07384 59.3074 17.2307C43.1597 22.4984 27.2583 33.1322 22.1875 49.3783C18.9383 59.8644 20.6121 71.1382 20.8583 82.1166C21.1537 98.018 13.4245 109.046 7.81221 123.224C1.75685 138.535 -1.83698 155.618 0.96916 172.012C3.57838 187.273 11.8983 201.205 23.5168 209.919C42.2244 223.851 67.3319 223.802 85.9903 237.784C91.1595 241.673 95.6395 246.547 100.759 250.534C113.658 260.774 129.461 264.91 145.067 266.288C152.648 266.977 160.328 267.519 167.959 267.125C176.082 266.731 183.073 263.974 190.901 262.399C203.553 259.839 215.073 255.802 223.196 243.642Z" fill="#E0EBE3"/>
<path d="M270.703 3.05176e-05H31.0981V187.568H270.703V3.05176e-05Z" fill="#9CB3BC"/>
<path d="M265.337 4.7262H36.415V182.892H265.337V4.7262Z" fill="white"/>
<path d="M153.534 6.10352e-05H148.217V187.568H153.534V6.10352e-05Z" fill="#9CB3BC"/>
<path d="M258.986 97.4274C259.773 97.5259 264.795 100.627 263.81 101.71C267.06 98.1659 271.736 97.0828 274.346 102.203C275.823 105.157 275.527 108.652 275.133 111.901C274.493 116.824 273.558 121.649 272.672 126.523C271.293 133.907 270.013 141.292 267.601 148.381C266.567 151.483 265.681 154.633 264.155 157.587C263.761 158.375 258.937 164.775 258.986 164.873C255.441 157.981 254.309 150.203 253.226 142.572C251.355 129.673 250.37 117.858 252.734 105.058C253.078 103.237 253.423 101.415 254.407 99.889C255.392 98.3628 257.164 97.132 258.986 97.4274Z" fill="#065447"/>
<path d="M277.546 105.895C279.86 107.914 278.925 109.686 279.712 112.098C280.401 109.587 282.617 107.47 284.832 106.24C287.638 104.714 291.084 104.418 292.906 107.52C293.792 109.046 294.038 110.867 294.284 112.64C294.777 116.48 295.318 120.32 295.811 124.16C297.731 138.584 300.143 155.47 293.152 168.959C288.524 159.31 284.438 149.612 282.075 139.126C281.041 134.449 280.648 129.526 279.22 124.997C277.645 119.975 275.921 114.904 274.346 109.883C273.755 108.061 273.805 105.206 275.725 105.058C276.365 105.107 277.005 105.452 277.546 105.895Z" fill="#197164"/>
<path d="M264.845 100.923C265.091 99.052 265.091 97.132 264.451 95.3105C264.205 94.6213 263.762 93.932 262.925 94.1782C262.383 94.3751 261.842 94.8674 261.448 95.2613C259.725 97.0336 258.888 99.4951 258.445 101.858C257.411 107.126 258.002 112.443 257.854 117.71C257.657 126.424 257.706 135.187 257.952 143.901C258.199 152.812 258.592 161.722 258.888 170.633C259.134 179.544 259.282 188.455 258.986 197.365C258.937 198.448 258.888 199.581 258.839 200.664C258.789 201.304 259.774 201.304 259.823 200.664C260.168 192.147 260.168 183.581 259.971 175.015C259.774 166.449 259.38 157.932 259.134 149.366C258.839 140.898 258.642 132.43 258.74 123.963C258.789 120.812 258.937 117.661 258.888 114.461C258.839 111.852 258.789 109.194 258.937 106.584C259.085 103.975 259.38 101.317 260.365 98.8551C260.759 97.8212 261.349 96.7874 262.088 95.9997C262.235 95.8028 262.432 95.6551 262.629 95.5074C262.875 95.3105 263.269 94.8674 263.515 95.2613C263.762 95.6059 263.811 96.1474 263.909 96.5413C264.008 97.0336 264.106 97.5259 264.106 98.0674C264.155 99.0028 264.057 99.9382 263.959 100.824C263.811 101.563 264.795 101.514 264.845 100.923Z" fill="#065447"/>
<path d="M255.885 108.11C253.276 108.701 252.882 110.867 251.946 112.935C249.977 110.326 247.909 109.046 244.611 109.243C242.297 109.39 239.934 110.523 238.753 112.541C238.063 113.821 237.866 115.298 237.719 116.726C236.586 126.424 235.454 136.123 235.897 145.87C236.39 155.962 238.556 165.956 242.346 175.31C253.522 157.686 258.642 136.861 261.399 116.135C261.645 114.166 261.891 112 260.857 110.277C259.872 108.603 257.756 107.717 255.885 108.11Z" fill="#197164"/>
<path d="M249.239 131.101C249.435 129.92 249.583 128.689 250.223 127.655C250.765 126.818 251.897 126.08 252.931 126.326C254.112 126.67 254.408 128.098 254.703 129.132C255.097 130.461 255.442 131.741 255.786 133.07C257.115 138.387 258.198 143.753 258.986 149.169C260.611 160.049 261.349 171.076 261.595 182.055C261.743 188.209 261.743 194.362 261.694 200.516C261.694 201.156 262.678 201.156 262.678 200.516C262.777 188.898 262.678 177.279 261.842 165.71C261.005 154.19 259.38 142.67 256.426 131.446C256.032 129.969 255.737 128.443 255.097 127.064C254.605 125.981 253.669 125.193 252.488 125.243C249.534 125.292 248.697 128.393 248.303 130.757C248.205 131.446 249.14 131.692 249.239 131.101Z" fill="#065447"/>
<path d="M251.897 112.935C254.309 113.624 255.392 116.529 256.229 118.597C257.214 121.107 257.952 123.766 258.444 126.473C259.527 132.135 259.97 137.944 260.414 143.655C261.447 155.667 261.94 167.679 261.989 179.692C261.989 186.436 261.89 193.181 261.595 199.925C261.546 200.565 262.53 200.565 262.58 199.925C263.121 187.569 263.121 175.212 262.58 162.855C262.334 156.701 261.94 150.498 261.447 144.344C260.955 138.535 260.512 132.676 259.478 126.917C258.937 123.815 258.149 120.763 256.967 117.907C255.983 115.544 254.752 112.689 252.094 111.95C251.552 111.852 251.306 112.787 251.897 112.935Z" fill="#065447"/>
<path d="M279.86 111.507C279.417 109.44 276.857 108.947 275.183 109.735C272.869 110.818 272.377 113.92 271.983 116.184C270.752 122.88 269.718 129.575 268.881 136.32C267.208 149.858 266.272 163.495 266.124 177.132C266.026 184.861 266.223 192.541 266.666 200.221C266.715 200.861 267.7 200.861 267.651 200.221C266.912 187.224 266.912 174.227 267.651 161.23C268.34 148.283 269.768 135.384 271.884 122.584C272.18 120.763 272.524 118.941 272.82 117.12C273.066 115.692 273.263 114.166 273.804 112.837C274.297 111.655 275.134 110.523 276.512 110.375C277.546 110.277 278.678 110.67 278.924 111.754C279.072 112.394 280.007 112.147 279.86 111.507Z" fill="#065447"/>
<path d="M278.826 117.858C277.497 116.234 275.281 115.938 273.361 116.578C271.097 117.267 269.62 119.04 268.783 121.157C267.798 123.618 267.7 126.375 267.503 128.984C267.257 132.233 267.06 135.483 266.863 138.732C266.075 151.679 265.78 164.627 265.829 177.624C265.878 184.861 266.026 192.147 266.37 199.384C266.42 200.024 267.404 200.024 267.355 199.384C266.814 186.978 266.666 174.621 266.912 162.215C267.01 156.012 267.257 149.809 267.552 143.655C267.7 140.553 267.897 137.452 268.094 134.4C268.29 131.495 268.438 128.59 268.734 125.686C269.029 123.077 269.669 119.975 271.983 118.35C273.804 117.07 276.561 116.726 278.087 118.597C278.53 119.04 279.22 118.35 278.826 117.858Z" fill="#065447"/>
<path d="M282.223 240.836C284.537 217.402 286.407 193.181 286.457 169.255C272.278 169.205 258.1 169.205 243.922 169.255C243.085 169.304 247.368 235.716 247.909 242.953C247.958 243.839 248.057 244.824 248.451 245.365C248.697 245.71 248.992 245.808 249.337 245.907C259.577 248.664 268.931 246.842 279.072 246.399C279.811 246.35 280.598 246.301 281.189 245.414C281.829 244.331 282.075 242.51 282.223 240.836Z" fill="#282633"/>
<path d="M292.167 117.267C302.555 133.021 309.152 152.27 305.411 170.781C304.524 167.827 303.146 165.07 301.718 162.363C297.287 153.796 292.807 145.23 288.377 136.615C286.457 132.873 284.488 129.132 282.272 125.587C281.189 123.815 280.008 122.043 278.728 120.418C277.644 119.04 276.02 118.252 275.084 116.873C281.238 112.738 287.048 109.538 292.167 117.267Z" fill="#198467"/>
<path d="M279.614 134.793C276.069 134.055 274.494 136.96 273.066 139.569C272.524 137.55 270.014 136.467 267.995 137.058C265.977 137.649 264.5 139.47 263.811 141.44C263.121 143.409 263.072 145.575 263.072 147.692C263.072 158.473 262.727 171.224 266.174 181.562C269.127 190.424 270.998 199.975 277.94 206.867C283.06 191.212 288.278 175.162 287.835 158.67C287.687 153.353 286.949 148.036 285.62 142.867C284.783 139.421 283.109 135.532 279.614 134.793Z" fill="#198467"/>
<path d="M258.838 127.36C255.441 124.455 251.651 128.541 248.795 129.92C246.383 126.129 243.134 126.277 239.491 129.28C236.439 131.84 234.863 135.68 233.632 139.52C228.562 155.47 228.611 172.996 233.731 188.947C238.506 185.156 241.165 179.396 243.626 173.784C249.189 161.083 254.408 148.184 259.183 135.187C260.168 132.578 260.955 129.181 258.838 127.36Z" fill="#198467"/>
<path d="M248.697 129.28C245.3 136.516 242.445 144 240.18 151.679C237.915 159.359 236.291 167.187 235.208 175.113C234.617 179.593 234.223 184.122 234.026 188.602C233.977 189.242 234.962 189.242 235.011 188.602C235.355 180.676 236.34 172.75 237.866 164.972C239.442 157.243 241.608 149.563 244.315 142.178C245.842 137.993 247.614 133.858 249.485 129.772C249.829 129.181 248.992 128.689 248.697 129.28Z" fill="#065447"/>
<path d="M244.611 131.495C243.331 131.347 242.1 131.298 240.82 131.396C240.574 131.396 240.328 131.593 240.328 131.889C240.328 132.135 240.574 132.381 240.82 132.381C242.1 132.283 243.38 132.283 244.611 132.48C244.857 132.529 245.103 132.233 245.103 131.987C245.103 131.692 244.857 131.495 244.611 131.495Z" fill="white"/>
<path d="M242.248 134.744C240.919 135.286 239.589 135.778 238.26 136.32C238.014 136.418 237.817 136.664 237.916 136.91C237.965 137.156 238.26 137.353 238.506 137.255C239.836 136.713 241.165 136.221 242.494 135.68C242.74 135.581 242.937 135.335 242.839 135.089C242.789 134.843 242.494 134.646 242.248 134.744Z" fill="white"/>
<path d="M240.081 139.421C238.949 140.209 237.866 141.095 236.783 141.981C236.586 142.178 236.586 142.523 236.783 142.67C236.98 142.867 237.275 142.867 237.472 142.67C238.457 141.784 239.491 140.996 240.574 140.258C240.771 140.11 240.869 139.815 240.771 139.569C240.672 139.421 240.328 139.273 240.081 139.421Z" fill="white"/>
<path d="M238.556 144.886C237.226 145.919 235.946 147.052 234.765 148.184C234.322 148.627 235.011 149.316 235.454 148.873C236.685 147.692 237.916 146.609 239.245 145.575C239.442 145.427 239.393 145.033 239.245 144.886C239.048 144.64 238.753 144.689 238.556 144.886Z" fill="white"/>
<path d="M236.783 150.399C235.356 151.236 233.928 152.123 232.599 153.156C232.402 153.304 232.254 153.599 232.402 153.846C232.5 154.043 232.845 154.19 233.091 154.043C234.42 153.009 235.799 152.123 237.276 151.286C237.817 150.941 237.325 150.104 236.783 150.399Z" fill="white"/>
<path d="M236.143 154.338C234.764 155.667 233.386 156.947 232.008 158.276C231.564 158.719 232.254 159.409 232.697 158.966C234.075 157.636 235.454 156.356 236.832 155.027C237.324 154.584 236.635 153.895 236.143 154.338Z" fill="white"/>
<path d="M234.962 159.359C234.075 160.541 233.14 161.624 232.106 162.658C231.663 163.101 232.352 163.79 232.795 163.347C233.879 162.264 234.863 161.082 235.798 159.852C235.946 159.655 235.848 159.31 235.602 159.162C235.405 159.015 235.109 159.113 234.962 159.359Z" fill="white"/>
<path d="M234.568 164.332C233.534 165.661 232.746 167.187 232.254 168.861C232.057 169.452 233.042 169.747 233.189 169.107C233.632 167.63 234.322 166.252 235.257 165.021C235.405 164.824 235.454 164.529 235.257 164.332C235.109 164.135 234.715 164.086 234.568 164.332Z" fill="white"/>
<path d="M233.189 171.962C232.943 172.947 232.697 173.981 232.451 174.966C232.402 175.212 232.549 175.507 232.795 175.556C233.042 175.606 233.337 175.458 233.386 175.212C233.632 174.227 233.879 173.193 234.125 172.209C234.174 171.962 234.026 171.667 233.78 171.618C233.534 171.569 233.239 171.716 233.189 171.962Z" fill="white"/>
<path d="M252.635 131.052C253.964 130.855 255.294 130.707 256.623 130.609C256.869 130.609 257.115 130.412 257.115 130.116C257.115 129.87 256.869 129.624 256.623 129.624C255.195 129.723 253.768 129.92 252.34 130.116C252.094 130.166 251.946 130.51 251.995 130.707C252.094 130.953 252.34 131.052 252.635 131.052Z" fill="white"/>
<path d="M250.912 134.104C252.438 134.252 254.014 134.498 255.491 134.843C256.131 134.99 256.377 134.055 255.737 133.907C254.161 133.563 252.488 133.267 250.863 133.169C250.617 133.169 250.371 133.415 250.371 133.661C250.42 133.907 250.666 134.104 250.912 134.104Z" fill="white"/>
<path d="M249.829 137.009C251.158 137.403 252.389 138.289 253.226 139.421C253.374 139.618 253.669 139.716 253.915 139.618C254.112 139.47 254.26 139.175 254.112 138.929C253.128 137.55 251.749 136.516 250.125 136.024C249.878 135.926 249.583 136.123 249.534 136.369C249.435 136.664 249.583 136.91 249.829 137.009Z" fill="white"/>
<path d="M248.205 140.996C249.386 142.08 250.371 143.31 251.109 144.689C251.405 145.23 252.242 144.738 251.946 144.196C251.159 142.72 250.125 141.39 248.845 140.307C248.648 140.11 248.352 140.11 248.156 140.307C248.008 140.455 248.008 140.8 248.205 140.996Z" fill="white"/>
<path d="M246.58 144.984C247.269 146.363 248.106 147.741 249.042 148.972C249.189 149.169 249.485 149.316 249.731 149.169C249.928 149.07 250.076 148.726 249.928 148.479C248.992 147.249 248.156 145.919 247.466 144.492C247.368 144.246 247.023 144.196 246.777 144.295C246.531 144.443 246.432 144.738 246.58 144.984Z" fill="white"/>
<path d="M244.315 149.759C245.202 151.483 246.039 153.156 246.925 154.879C247.22 155.421 248.057 154.929 247.762 154.387C246.875 152.664 246.039 150.99 245.152 149.267C244.906 148.676 244.02 149.169 244.315 149.759Z" fill="white"/>
<path d="M242.838 153.895C243.183 156.012 243.971 158.03 245.005 159.901C245.3 160.442 246.186 159.95 245.841 159.409C244.808 157.636 244.118 155.667 243.774 153.649C243.725 153.403 243.429 153.255 243.183 153.304C242.937 153.353 242.838 153.649 242.838 153.895Z" fill="white"/>
<path d="M241.952 159.113C242.445 160.886 242.839 162.707 243.134 164.529C243.183 164.775 243.478 164.922 243.725 164.873C244.02 164.775 244.119 164.529 244.069 164.282C243.774 162.461 243.38 160.689 242.888 158.867C242.691 158.227 241.755 158.473 241.952 159.113Z" fill="white"/>
<path d="M239.983 165.267C240.278 167.138 240.623 168.959 240.918 170.83C240.968 171.076 241.263 171.224 241.509 171.175C241.804 171.076 241.903 170.83 241.854 170.584C241.558 168.713 241.214 166.892 240.918 165.021C240.869 164.775 240.574 164.627 240.328 164.676C240.081 164.775 239.983 165.021 239.983 165.267Z" fill="white"/>
<path d="M238.654 171.47C238.802 173.489 238.9 175.458 239.048 177.476C239.097 178.116 240.081 178.116 240.032 177.476C239.885 175.458 239.786 173.489 239.638 171.47C239.638 170.879 238.654 170.83 238.654 171.47Z" fill="white"/>
<path d="M236.783 177.821C236.438 179.002 236.389 180.233 236.537 181.415C236.586 181.661 236.93 181.809 237.127 181.759C237.423 181.661 237.521 181.415 237.472 181.169C237.324 180.135 237.423 179.101 237.718 178.116C237.817 177.87 237.62 177.575 237.373 177.526C237.127 177.427 236.881 177.575 236.783 177.821Z" fill="white"/>
<path d="M273.017 139.47C273.657 143.95 274.346 148.381 274.887 152.861C275.429 157.292 275.675 161.723 275.823 166.153C275.97 170.584 275.97 174.966 276.02 179.396C276.069 183.827 276.364 188.209 276.512 192.639C276.561 193.919 276.61 195.15 276.61 196.43C276.61 197.661 276.561 198.892 276.61 200.122C276.758 202.387 277.595 204.553 277.497 206.867C277.447 207.507 278.432 207.507 278.481 206.867C278.58 204.848 277.94 202.978 277.644 200.959C277.497 199.876 277.546 198.744 277.546 197.661C277.546 196.578 277.546 195.495 277.497 194.362C277.398 189.882 277.053 185.452 277.004 180.972C276.807 172.061 277.004 163.101 275.97 154.19C275.38 149.218 274.592 144.246 273.903 139.224C273.853 138.584 272.918 138.83 273.017 139.47Z" fill="#065447"/>
<path d="M270.654 140.996C269.817 140.603 268.931 140.504 268.045 140.652C267.799 140.701 267.602 141.046 267.7 141.243C267.799 141.538 268.045 141.636 268.291 141.587C268.34 141.587 268.34 141.587 268.291 141.587C268.34 141.587 268.34 141.587 268.389 141.587C268.439 141.587 268.488 141.587 268.488 141.587C268.586 141.587 268.685 141.587 268.783 141.587C268.882 141.587 268.98 141.587 269.079 141.587C269.128 141.587 269.177 141.587 269.177 141.587C269.177 141.587 269.325 141.587 269.276 141.587C269.177 141.587 269.374 141.587 269.374 141.587C269.423 141.587 269.473 141.587 269.473 141.587C269.571 141.587 269.669 141.636 269.719 141.636C269.817 141.686 269.916 141.686 269.965 141.735C270.014 141.735 270.014 141.784 270.063 141.784C270.112 141.784 270.112 141.784 270.063 141.784C270.063 141.784 270.113 141.784 270.113 141.833C270.359 141.932 270.654 141.932 270.802 141.636C270.949 141.44 270.9 141.095 270.654 140.996Z" fill="white"/>
<path d="M270.703 144.59C269.423 144.59 268.143 144.787 266.912 145.181C266.666 145.28 266.518 145.526 266.568 145.772C266.617 146.018 266.912 146.215 267.158 146.116C268.291 145.772 269.472 145.575 270.703 145.575C271.343 145.575 271.343 144.59 270.703 144.59Z" fill="white"/>
<path d="M270.9 148.676C269.325 149.021 267.799 149.513 266.322 150.104C266.076 150.203 265.879 150.449 265.977 150.695C266.026 150.941 266.322 151.138 266.568 151.039C268.045 150.449 269.571 149.956 271.146 149.612C271.392 149.563 271.54 149.267 271.491 149.021C271.442 148.775 271.146 148.627 270.9 148.676Z" fill="white"/>
<path d="M271.392 152.812C269.669 153.501 268.044 154.338 266.518 155.372C266.321 155.519 266.223 155.815 266.321 156.061C266.469 156.258 266.764 156.406 267.011 156.258C268.438 155.273 270.014 154.436 271.638 153.796C271.884 153.698 272.081 153.452 271.983 153.206C271.934 152.959 271.638 152.713 271.392 152.812Z" fill="white"/>
<path d="M271.737 158.276C269.964 159.113 268.143 159.999 266.37 160.836C266.124 160.935 266.075 161.279 266.174 161.526C266.321 161.772 266.617 161.821 266.863 161.722C268.635 160.886 270.457 159.999 272.229 159.163C272.475 159.064 272.524 158.719 272.426 158.473C272.278 158.178 271.983 158.129 271.737 158.276Z" fill="white"/>
<path d="M271.983 163.199C270.309 163.692 268.734 164.43 267.306 165.415C267.109 165.563 267.01 165.858 267.109 166.104C267.257 166.301 267.552 166.449 267.798 166.301C269.177 165.366 270.654 164.627 272.229 164.184C272.869 163.938 272.574 163.003 271.983 163.199Z" fill="white"/>
<path d="M272.426 167.482C270.949 168.762 269.423 169.993 267.847 171.126C267.65 171.273 267.552 171.569 267.65 171.815C267.798 172.012 268.094 172.159 268.34 172.012C270.013 170.83 271.589 169.55 273.115 168.221C273.312 168.024 273.312 167.679 273.115 167.532C272.918 167.286 272.623 167.286 272.426 167.482Z" fill="white"/>
<path d="M272.229 172.553C270.801 174.03 269.374 175.507 267.946 176.984C267.503 177.427 268.192 178.116 268.635 177.673C270.063 176.196 271.491 174.719 272.918 173.242C273.361 172.799 272.672 172.11 272.229 172.553Z" fill="white"/>
<path d="M272.967 178.658C271.638 180.43 270.309 182.202 268.98 184.024C268.832 184.221 268.93 184.565 269.176 184.713C269.423 184.861 269.669 184.762 269.866 184.516C271.195 182.744 272.524 180.972 273.853 179.15C274.001 178.953 273.903 178.609 273.656 178.461C273.361 178.313 273.115 178.461 272.967 178.658Z" fill="white"/>
<path d="M273.558 185.156C272.771 186.682 271.934 188.258 271.146 189.784C270.851 190.325 271.688 190.867 271.983 190.276C272.771 188.75 273.608 187.175 274.395 185.649C274.691 185.058 273.854 184.566 273.558 185.156Z" fill="white"/>
<path d="M274.149 191.458C273.559 192.738 272.869 194.018 272.082 195.199C271.934 195.445 272.032 195.741 272.279 195.888C272.525 196.036 272.82 195.938 272.968 195.692C273.755 194.51 274.445 193.23 275.035 191.95C275.134 191.704 275.085 191.408 274.839 191.261C274.642 191.162 274.297 191.212 274.149 191.458Z" fill="white"/>
<path d="M276.069 139.519C277.103 139.273 278.186 139.076 279.269 139.027C279.515 139.027 279.761 138.83 279.761 138.535C279.761 138.289 279.515 138.043 279.269 138.043C278.087 138.141 276.955 138.289 275.823 138.584C275.577 138.633 275.429 138.929 275.478 139.175C275.527 139.47 275.823 139.618 276.069 139.519Z" fill="white"/>
<path d="M277.349 142.966C278.678 142.867 280.008 142.966 281.337 143.261C281.583 143.31 281.878 143.163 281.928 142.916C281.977 142.67 281.829 142.375 281.583 142.326C280.205 142.03 278.777 141.883 277.349 142.03C277.103 142.03 276.857 142.227 276.857 142.523C276.857 142.72 277.103 142.966 277.349 142.966Z" fill="white"/>
<path d="M277.546 147.347C279.072 147.741 280.549 148.184 282.026 148.676C282.272 148.775 282.567 148.578 282.616 148.332C282.715 148.086 282.518 147.79 282.272 147.741C280.795 147.249 279.318 146.806 277.792 146.412C277.152 146.215 276.906 147.15 277.546 147.347Z" fill="white"/>
<path d="M278.334 151.729C280.205 152.467 281.977 153.452 283.602 154.633C283.798 154.781 284.143 154.683 284.291 154.436C284.438 154.19 284.34 153.944 284.094 153.747C282.42 152.467 280.549 151.483 278.58 150.744C278.334 150.646 278.039 150.843 277.989 151.089C277.891 151.433 278.088 151.679 278.334 151.729Z" fill="white"/>
<path d="M278.826 157.39C280.647 158.523 282.469 159.655 284.29 160.787C284.832 161.132 285.324 160.295 284.783 159.95C282.961 158.818 281.14 157.686 279.318 156.553C278.777 156.209 278.284 157.046 278.826 157.39Z" fill="white"/>
<path d="M278.58 162.215C280.106 163.495 281.829 164.529 283.651 165.366C283.897 165.464 284.192 165.415 284.34 165.169C284.438 164.972 284.389 164.578 284.143 164.479C282.42 163.692 280.746 162.707 279.269 161.526C279.072 161.378 278.777 161.329 278.58 161.526C278.383 161.673 278.383 162.018 278.58 162.215Z" fill="white"/>
<path d="M279.564 168.762C280.844 169.895 282.075 170.978 283.355 172.11C283.552 172.307 283.847 172.307 284.044 172.11C284.241 171.913 284.241 171.569 284.044 171.421C282.764 170.289 281.534 169.206 280.254 168.073C280.057 167.876 279.761 167.876 279.564 168.073C279.417 168.27 279.368 168.615 279.564 168.762Z" fill="white"/>
<path d="M279.023 174.572C280.45 175.359 281.681 176.442 282.666 177.722C282.813 177.919 283.207 177.87 283.355 177.722C283.552 177.525 283.502 177.23 283.355 177.033C282.321 175.704 280.992 174.572 279.515 173.735C278.973 173.39 278.481 174.276 279.023 174.572Z" fill="white"/>
<path d="M278.432 179.938C279.663 181.169 280.845 182.449 282.026 183.827C282.174 184.024 282.568 184.024 282.715 183.827C282.912 183.63 282.863 183.335 282.715 183.138C281.583 181.809 280.402 180.479 279.122 179.249C278.679 178.756 277.989 179.446 278.432 179.938Z" fill="white"/>
<path d="M278.333 185.845C278.973 187.224 279.86 188.504 280.992 189.538C281.189 189.735 281.484 189.735 281.681 189.538C281.878 189.341 281.878 189.045 281.681 188.849C280.598 187.864 279.761 186.682 279.17 185.353C279.072 185.107 278.727 185.058 278.481 185.156C278.284 185.304 278.235 185.599 278.333 185.845Z" fill="white"/>
<path d="M278.481 192.492C278.58 193.181 278.678 193.87 278.776 194.559C278.776 194.658 278.924 194.805 279.023 194.855C279.121 194.904 279.269 194.953 279.416 194.904C279.515 194.855 279.663 194.805 279.712 194.658C279.761 194.51 279.761 194.412 279.761 194.264C279.663 193.575 279.564 192.885 279.466 192.196C279.466 192.098 279.318 191.95 279.22 191.901C279.121 191.852 278.973 191.802 278.826 191.852C278.727 191.901 278.58 191.95 278.53 192.098C278.432 192.245 278.432 192.344 278.481 192.492Z" fill="white"/>
<path d="M280.598 117.612C281.928 116.824 283.404 116.381 284.931 116.283C285.177 116.283 285.423 116.086 285.423 115.79C285.423 115.544 285.177 115.298 284.931 115.298C283.208 115.397 281.583 115.889 280.106 116.775C279.564 117.07 280.057 117.957 280.598 117.612Z" fill="white"/>
<path d="M283.06 120.517C285.127 120.418 287.195 120.27 289.213 120.172C289.853 120.123 289.853 119.138 289.213 119.187C287.146 119.286 285.078 119.433 283.06 119.532C282.42 119.532 282.42 120.517 283.06 120.517Z" fill="white"/>
<path d="M285.718 124.8C287.589 124.8 289.411 124.8 291.282 124.8C291.922 124.8 291.922 123.815 291.282 123.815C289.411 123.815 287.589 123.815 285.718 123.815C285.128 123.815 285.128 124.8 285.718 124.8Z" fill="white"/>
<path d="M288.13 128.492C290.297 128.541 292.413 128.836 294.481 129.378C295.072 129.526 295.367 128.59 294.727 128.443C292.561 127.852 290.346 127.556 288.081 127.507C287.49 127.507 287.49 128.492 288.13 128.492Z" fill="white"/>
<path d="M290.494 133.366C292.758 133.267 294.974 133.415 297.189 133.907C297.829 134.055 298.075 133.07 297.435 132.972C295.171 132.48 292.808 132.283 290.494 132.381C289.854 132.43 289.854 133.415 290.494 133.366Z" fill="white"/>
<path d="M293.152 137.993C294.826 138.584 296.598 138.929 298.37 138.978C299.01 138.978 299.01 137.993 298.37 137.993C296.696 137.944 295.023 137.6 293.398 137.058C293.152 136.96 292.857 137.156 292.807 137.403C292.758 137.698 292.906 137.944 293.152 137.993Z" fill="white"/>
<path d="M295.86 142.129C297.386 142.621 298.912 143.163 300.389 143.803C300.635 143.901 300.93 143.852 301.078 143.606C301.177 143.409 301.127 143.015 300.881 142.916C299.306 142.227 297.73 141.636 296.106 141.144C295.515 140.996 295.269 141.932 295.86 142.129Z" fill="white"/>
<path d="M297.336 147.938C299.059 148.627 300.684 149.563 302.161 150.646C302.358 150.793 302.703 150.695 302.85 150.449C302.998 150.203 302.899 149.907 302.653 149.759C301.078 148.627 299.355 147.692 297.583 146.953C297.336 146.855 297.041 147.052 296.992 147.298C296.893 147.593 297.041 147.839 297.336 147.938Z" fill="white"/>
<path d="M299.897 153.403C301.226 154.387 302.752 155.175 304.278 155.815C304.524 155.913 304.82 155.716 304.869 155.47C304.967 155.175 304.77 154.978 304.524 154.879C303.047 154.289 301.62 153.55 300.34 152.566C300.143 152.418 299.798 152.516 299.65 152.763C299.552 152.959 299.7 153.255 299.897 153.403Z" fill="white"/>
<path d="M301.767 158.67C302.161 158.818 302.555 159.064 302.9 159.31C302.949 159.359 302.998 159.359 302.998 159.409C302.998 159.409 303.097 159.458 303.047 159.458C302.998 159.409 303.047 159.458 303.047 159.458C303.146 159.507 303.195 159.606 303.294 159.655C303.441 159.802 303.638 159.95 303.786 160.098C303.983 160.295 304.327 160.295 304.475 160.098C304.672 159.901 304.672 159.606 304.475 159.409C303.835 158.719 303.097 158.178 302.26 157.833C302.112 157.784 302.014 157.735 301.866 157.784C301.767 157.833 301.62 157.882 301.57 158.03C301.472 158.178 301.521 158.522 301.767 158.67Z" fill="white"/>
<path d="M67.2829 247.285C69.7936 236.454 73.4859 217.107 74.2736 214.547C71.2213 213.808 68.2182 213.119 65.1659 212.381C64.7721 212.282 64.329 212.184 63.9844 212.381C63.5413 212.578 63.3937 213.119 63.2952 213.562C60.5383 225.919 59.0614 239.211 58.3721 251.863C58.3721 252.257 58.3229 252.651 58.4706 253.045C59.1598 255.26 63.3936 254.67 65.1167 254.62C65.4613 254.62 66.2982 251.617 67.2829 247.285Z" fill="#282633"/>
<path d="M235.454 261.808C235.995 250.682 236.192 231.039 236.537 228.381C233.436 228.233 230.334 228.036 227.183 227.888C226.789 227.888 226.346 227.839 226.002 228.085C225.608 228.381 225.559 228.873 225.509 229.365C224.968 242.017 225.903 255.359 227.429 267.913C227.479 268.307 227.528 268.7 227.725 269.094C228.808 271.162 232.845 269.833 234.568 269.439C234.962 269.34 235.208 266.288 235.454 261.808Z" fill="#282633"/>
<path d="M294.531 226.461C293.99 215.334 292.316 195.741 292.365 193.082C289.263 193.23 286.162 193.328 283.011 193.476C282.617 193.476 282.174 193.525 281.879 193.821C281.534 194.165 281.485 194.658 281.534 195.15C282.223 207.802 284.439 220.996 287.196 233.353C287.294 233.747 287.393 234.141 287.59 234.485C288.87 236.454 292.759 234.731 294.433 234.19C294.777 233.993 294.777 230.941 294.531 226.461Z" fill="#282633"/>
<path d="M144.964 165.51C142.65 164.92 140.533 163.886 138.712 162.113C126.896 150.593 117.395 134.84 107.204 121.843C100.903 113.818 94.6505 105.794 88.349 97.8183C84.8044 93.2891 80.5706 88.4153 74.8598 88.0215C72.546 87.8738 70.2321 88.5138 68.0168 89.1538C47.2415 95.0122 28.4846 102.298 9.2355 111.948C5.98629 113.572 2.44169 115.541 1.35862 118.987C0.374004 121.991 1.60477 125.24 2.7863 128.194C7.21705 139.172 11.6478 149.806 16.9647 160.44C24.8908 175.258 33.3092 189.83 42.3184 204.009C46.6015 210.802 51.4261 217.842 58.7122 221.239C62.4045 222.962 66.4414 223.602 70.4291 224.242C115.13 231.233 160.176 236.107 205.321 238.864C220.385 239.799 236.976 241.572 251.548 236.895C254.945 235.812 258.096 233.941 261.099 232.021C274.785 223.209 286.453 212.673 297.53 200.858C298.711 199.578 299.893 198.298 300.483 196.673C301.222 194.606 300.779 192.292 300.286 190.126C299.253 185.104 297.726 179.492 293.148 177.178C291.08 176.144 288.717 175.947 286.403 175.8C251.893 173.486 217.382 172.107 182.921 169.301C174.404 168.612 165.936 167.824 157.419 166.938C153.235 166.446 148.853 166.544 144.964 165.51Z" fill="#FEC14C"/>
<path d="M300.389 196.233C301.128 194.165 300.685 191.851 300.192 189.685C299.405 185.944 298.371 181.858 295.958 179.051C295.318 178.313 251.651 213.464 247.072 217.057C245.989 217.894 244.857 218.78 243.577 219.224C242.199 219.716 240.673 219.716 239.196 219.716C225.608 219.617 211.528 220.504 198.039 219.174C184.894 217.894 171.701 215.728 158.556 214.054C131.676 210.707 104.796 207.359 77.9163 203.962C75.7994 203.716 73.6333 203.421 71.8117 202.239C70.1379 201.156 69.0056 199.433 67.9225 197.71C59.7995 185.156 51.2334 173.587 44.7349 160.147C37.9411 146.116 31.1473 132.036 24.3535 118.006C23.2212 115.642 21.9904 113.23 19.8735 111.704C17.5105 110.03 14.7535 109.636 11.8982 110.079C10.9628 110.523 10.0766 110.966 9.14126 111.458C5.89205 113.083 2.34745 115.052 1.26438 118.498C0.279766 121.501 1.51053 124.75 2.69206 127.704C7.12281 138.682 11.5536 149.316 16.8705 159.95C24.7966 174.768 33.215 189.341 42.2242 203.519C46.5072 210.313 51.3318 217.353 58.618 220.75C62.3102 222.473 66.3472 223.113 70.3348 223.753C115.036 230.744 160.082 235.617 205.227 238.374C220.291 239.31 236.882 241.082 251.454 236.405C254.851 235.322 258.002 233.451 261.005 231.531C274.691 222.719 286.358 212.184 297.435 200.368C298.617 199.187 299.848 197.858 300.389 196.233Z" fill="#FBAC47"/>
<path d="M100.563 134.941C93.6214 121.649 85.3999 112.935 74.0769 103.581C72.9446 102.646 71.763 101.71 70.3846 101.12C67.3815 99.8396 63.9354 100.381 60.7846 101.218C56.4523 102.301 52.0216 103.975 48.9693 107.273C46.2124 110.227 44.7847 114.313 44.3416 118.35C43.6524 124.504 44.4401 130.904 46.2124 136.763C51.7262 155.076 60.4892 172.405 71.96 187.716C73.5353 189.784 75.2092 191.901 77.523 193.131C79.8368 194.313 82.4953 194.461 85.0553 194.608C113.511 196.184 141.917 197.759 170.372 199.384C194.347 200.713 218.519 202.042 242.15 198.005C248.008 197.021 254.753 194.904 256.673 189.242C256.968 188.356 257.116 187.372 256.771 186.485C256.279 185.255 255.048 184.615 253.867 184.024C237.522 176.344 219.405 173.488 201.584 170.732C179.43 167.285 157.276 163.839 135.123 160.393C126.901 159.113 118.187 157.636 111.886 152.221C106.667 147.692 103.763 141.095 100.563 134.941Z" fill="#FBAC47"/>
<path d="M72.797 202.633C71.0247 202.978 69.8924 204.553 68.8586 205.882C67.4801 207.704 66.1509 209.476 64.7724 211.298C62.4586 214.35 59.3078 217.698 59.1602 221.734C59.1602 222.374 60.1448 222.374 60.1448 221.734C60.194 219.864 60.9817 218.19 62.0155 216.664C63.0986 215.039 64.3294 213.513 65.4617 211.938C66.7417 210.264 67.9724 208.59 69.2524 206.916C70.237 205.587 71.2709 203.864 72.9939 203.519C73.6832 203.47 73.3878 202.485 72.797 202.633Z" fill="#282633"/>
<path d="M241.116 219.913C241.411 226.411 243.134 232.811 246.039 238.67C246.334 239.211 247.171 238.719 246.876 238.177C244.021 232.516 242.396 226.264 242.101 219.913C242.051 219.322 241.067 219.273 241.116 219.913Z" fill="#282633"/>
<path d="M218.224 189.636C215.91 188.553 221.67 179.495 222.261 178.608C228.464 181.218 236.439 185.304 243.233 184.713C246.728 184.418 250.174 183.778 253.67 183.285C255.54 183.039 261.793 181.415 263.319 182.842C266.273 185.599 256.525 192.344 254.408 193.624C251.799 195.199 248.747 195.888 246.137 197.415C243.922 198.744 242.051 200.664 239.639 201.599C235.159 203.421 232.501 199.728 229.547 197.07C226.15 194.018 222.359 191.507 218.224 189.636Z" fill="#F6D1BA"/>
<path d="M232.107 199.433C234.125 194.461 235.307 189.144 235.454 183.778C230.827 182.498 226.199 180.233 222.261 178.608C221.67 179.495 215.91 188.553 218.224 189.636C222.31 191.556 226.15 194.067 229.547 197.07C230.384 197.808 231.221 198.645 232.107 199.433Z" fill="#EFA294"/>
<path d="M106.027 185.501C101.646 184.27 97.5105 182.301 93.769 179.396C93.129 178.904 85.0552 172.11 87.4183 170.928C93.9167 167.728 100.415 164.529 106.569 160.689C109.03 159.162 111.492 157.489 114.2 156.405C117.793 154.978 120.058 156.012 123.504 156.159C127.049 156.258 130.889 155.224 134.384 154.732C142.163 153.599 149.941 152.565 157.719 151.581C161.461 151.089 165.252 150.645 168.944 151.335C172.538 151.975 175.836 153.649 179.086 155.273C188.636 160.098 198.236 164.972 207.787 169.796C212.316 172.11 217.682 174.03 221.818 176.984C222.851 177.722 231.024 183.039 231.024 182.941C230.384 187.716 227.627 192.393 224.87 196.233C224.624 196.578 224.378 196.873 224.033 197.07C223.442 197.365 222.753 197.267 222.113 197.168C212.907 195.445 203.848 192.984 195.085 189.735C185.633 186.288 176.329 182.547 167.073 178.658C165.793 178.116 164.464 177.575 163.086 177.525C162.003 177.476 160.919 177.821 159.836 178.116C142.31 182.941 124.44 190.67 106.027 185.501Z" fill="#1C1A28"/>
<path d="M117.596 156.061C111.689 155.273 107.159 152.319 106.618 145.87C106.421 143.409 106.716 140.307 109.523 139.519C111.344 139.027 113.264 139.569 115.086 140.159C123.307 142.719 131.479 145.279 139.701 147.889C142.753 148.873 145.953 149.809 149.153 149.513C150.384 149.415 151.565 149.119 152.796 149.021C159.442 148.578 168.304 153.698 171.356 159.507C171.947 159.605 172.193 160.442 171.848 160.984C171.504 161.525 170.913 161.722 170.322 161.919C162.199 164.282 153.83 159.704 145.461 158.276C141.719 157.636 137.879 157.636 134.089 157.489C128.526 157.292 123.061 156.799 117.596 156.061Z" fill="#EFA294"/>
<path d="M224.18 180.528C222.851 180.43 223.54 170.732 223.737 169.55C227.725 169.845 232.156 170.092 236.143 169.895C240.328 169.698 244.808 166.793 248.451 164.922C253.177 162.51 257.952 160.442 263.171 159.359C264.894 159.015 267.109 158.965 267.897 160.492C268.389 161.476 268.094 162.658 267.798 163.692C265.928 169.55 264.303 173.341 259.085 176.738C254.802 179.495 249.386 179.248 244.709 181.119C243.823 181.464 242.888 181.858 241.903 181.858C239.196 181.907 236.636 180.725 233.78 180.824C230.531 180.824 227.38 180.775 224.18 180.528Z" fill="#F6D1BA"/>
<path d="M246.925 180.332C246.827 180.184 246.728 180.036 246.63 179.888C244.464 176.295 242.494 172.602 240.673 168.812C239.147 169.402 237.62 169.845 236.094 169.895C232.107 170.092 227.676 169.845 223.688 169.55C223.541 170.732 222.851 180.43 224.131 180.528C227.282 180.775 230.482 180.824 233.682 180.725C236.537 180.627 239.097 181.808 241.805 181.759C242.79 181.759 243.725 181.365 244.611 181.021C245.399 180.775 246.137 180.528 246.925 180.332Z" fill="#EFA294"/>
<path d="M111.442 194.018C132.513 194.805 152.648 186.682 173.571 187.519C177.854 187.667 182.088 188.159 186.371 188.159C193.903 188.159 201.485 186.83 208.968 186.288C217.091 185.698 225.214 185.107 233.337 184.418C234.273 184.319 235.306 184.221 236.045 183.581C236.685 182.99 236.931 182.104 237.128 181.267C237.916 177.329 237.571 173.39 238.359 169.501C238.457 169.058 238.506 168.565 238.26 168.221C238.014 167.876 237.473 167.778 237.029 167.778C226.346 166.941 215.614 166.104 204.931 165.267C195.085 164.479 184.353 162.412 174.556 163.101C154.667 164.529 134.187 162.067 114.15 162.067C110.261 161.969 106.322 161.87 102.532 162.806C99.3316 163.642 96.3286 165.218 93.424 166.793C86.3348 170.682 79.344 174.769 72.501 179.101C76.5379 193.673 97.3624 193.132 109.227 193.919C109.965 193.968 110.704 194.018 111.442 194.018Z" fill="#282633"/>
<path d="M87.2209 186.584C88.8947 186.239 90.4701 185.698 91.8978 184.812C95.2455 182.744 97.1162 179.15 100.07 176.639C103.122 174.079 105.19 171.322 107.996 168.467C112.033 164.381 118.236 161.722 119.565 156.159C114.544 153.993 112.033 148.873 109.473 144.393C106.618 139.421 104.058 134.35 101.449 129.28C99.0855 124.652 96.427 120.024 94.7039 115.101C93.2762 111.064 90.9132 109.095 86.7778 107.667C79.6886 105.206 72.0087 104.32 64.5256 105.107C58.2733 105.797 51.4303 116.824 49.5595 122.387C46.9995 129.969 52.0703 141.193 55.0241 148.233C57.978 155.372 62.3595 161.919 66.1995 168.565C70.0394 175.113 71.664 181.612 78.064 186.288C78.5071 186.633 78.9994 186.978 79.5409 187.125C79.984 187.224 80.4271 187.224 80.8209 187.175C82.9871 187.076 85.1532 186.978 87.2209 186.584Z" fill="white"/>
<path d="M106.323 127.803C104.107 125.587 101.35 123.963 99.5287 121.55C97.6579 119.04 96.7718 115.79 94.9995 113.181C92.6364 109.686 88.8949 107.815 85.0549 106.289C82.7903 105.353 80.4765 104.467 78.0149 104.123C77.6703 104.073 77.2273 104.073 76.9811 104.32C76.7842 104.516 76.7842 104.812 76.7842 105.107C76.8826 106.387 77.7196 107.52 78.7042 108.406C79.6888 109.243 80.8211 109.932 81.8057 110.769C84.3165 112.836 85.3995 115.84 87.4672 118.153C89.7318 120.664 92.7841 122.239 94.8518 124.947C97.8056 128.787 98.4948 133.907 100.316 138.436C102.187 142.966 105.239 146.855 108.538 150.399C110.852 152.91 112.722 156.356 115.726 158.129C118.926 159.999 122.273 158.522 125.572 157.292C126.605 156.898 127.738 156.307 127.885 155.273C127.984 154.436 127.442 153.649 126.704 153.156C126.015 152.713 125.129 152.516 124.341 152.172C116.858 149.267 115.233 139.372 111.147 133.415C109.818 131.298 108.095 129.526 106.323 127.803Z" fill="#EF752A"/>
<path d="M62.4089 105.55C62.4581 106.338 62.5566 107.076 62.852 107.815C63.2458 108.8 63.8858 109.636 64.575 110.424C66.3473 112.443 68.5135 114.166 71.0242 115.101C73.535 116.036 76.4396 116.086 78.8519 114.855C80.2796 114.116 81.4611 112.984 82.6426 111.852C82.8888 111.606 83.1349 111.31 83.2826 110.966C83.4303 110.572 83.3319 110.129 83.2334 109.686C81.658 103.138 80.3288 96.295 80.0334 89.5504C79.9842 88.9104 79.9842 88.2704 79.6396 87.7289C79.1965 87.0396 78.4088 86.695 77.6211 86.4489C73.2888 85.0704 68.6119 84.6273 64.1319 85.3166C63.5904 85.415 63.0489 85.5135 62.655 85.9073C60.9812 87.6304 62.3104 91.4704 62.5073 93.4888C62.852 96.935 62.3596 100.676 62.4089 104.221C62.3596 104.664 62.3596 105.107 62.4089 105.55Z" fill="#F6D1BA"/>
<path d="M86.3349 106.633C89.4364 108.209 92.8826 110.129 93.818 113.476C91.701 113.772 89.5841 113.87 87.4672 113.821C87.2211 115.495 87.3195 117.218 87.7134 118.892C86.5811 116.923 85.3995 115.003 84.2672 113.033C82.4457 109.932 79.5903 107.913 76.735 105.846C76.1934 105.452 75.6519 105.058 75.3073 104.467C74.9627 103.877 74.8642 103.089 75.3073 102.547C75.7503 101.957 76.5873 101.907 77.2765 102.104C77.9657 102.301 78.5073 102.843 79.098 103.237C81.2149 104.763 83.9718 105.452 86.3349 106.633Z" fill="#CA550D"/>
<path d="M70.1874 85.1196C69.9413 85.1196 69.7443 85.0704 69.4982 85.0704C69.3997 85.0704 69.3013 85.0704 69.2028 85.1196C67.7259 85.3658 66.9382 86.9904 66.5936 88.4673C64.969 95.7042 70.0397 104.221 75.3074 108.898C76.3905 109.883 77.6705 110.769 79.1474 110.916C80.5751 111.015 81.9535 110.375 82.9874 109.39C81.4612 102.941 80.1812 96.295 79.8858 89.6488C79.8366 89.0581 79.8366 88.4673 79.5904 87.9258C76.8335 87.0889 74.0274 86.2519 71.2705 85.415C70.9259 85.2673 70.5813 85.1689 70.1874 85.1196Z" fill="#EFA294"/>
<path d="M76.8337 99.5935C74.8153 98.8058 72.846 97.7719 71.0737 96.5412C66.7907 93.5873 63.3938 87.7781 60.6369 83.3966C58.0276 79.212 56.8461 75.5197 57.8307 70.6459C58.6184 66.8059 60.7353 63.5075 64.1322 61.489C67.3814 59.569 71.123 58.6829 74.9137 58.4367C77.4737 58.289 80.0337 58.3875 82.4952 59.0767C93.8182 62.3752 91.8983 74.1413 91.6521 83.3474C91.5536 86.5966 91.8982 89.895 91.7013 93.1443C91.5536 95.4581 91.3075 99.9873 88.7967 101.169C88.0583 101.513 87.1721 101.563 86.3352 101.513C83.0368 101.464 79.8368 100.775 76.8337 99.5935Z" fill="#F6D1BA"/>
<path d="M88.3046 86.252C88.0092 85.4151 88.0093 84.2335 87.96 83.4951C87.7631 81.9197 87.7139 80.3443 87.7139 78.7689C87.7139 78.4736 87.8123 78.2274 88.1077 78.0797C89.3385 79.0643 89.4862 81.6243 90.1262 83.0028C90.3231 83.3966 90.52 83.8397 90.8646 84.1351C91.3077 84.5289 91.9477 84.6766 92.5385 84.7751C93.1292 84.9228 93.7692 85.0704 94.2123 85.4643C94.6554 85.8581 94.8031 86.5474 94.36 86.9412C94.1631 87.1381 93.8677 87.1874 93.5723 87.2858C91.9969 87.6797 90.6185 87.8766 89.0923 87.1874C88.6985 86.9904 88.5015 86.6458 88.3046 86.252Z" fill="#EFA294"/>
<path d="M83.135 71.5321C81.9535 71.8275 80.772 72.0736 79.5905 72.369C78.6058 72.6151 77.6212 73.2551 76.6859 73.3536C76.4889 73.4028 76.3412 73.3536 76.1443 73.3044C74.6674 72.4675 77.572 70.5967 78.1135 70.3505C79.492 69.809 81.0674 69.809 82.4951 70.0552C82.8397 70.1044 83.1843 70.2028 83.4304 70.449C83.6766 70.6952 83.7258 71.1382 83.4797 71.3351C83.4304 71.4828 83.2827 71.5321 83.135 71.5321Z" fill="#1E2F44"/>
<path d="M90.0762 69.8582C89.4362 69.8582 88.8454 70.449 88.9931 71.089C89.7316 71.6797 90.7654 71.8767 91.6023 72.2213C91.6516 72.2213 91.75 72.2705 91.7993 72.2705C91.9469 72.2213 91.9962 72.0736 91.9962 71.9259C91.9962 70.8428 91.11 69.809 90.0762 69.8582Z" fill="#1E2F44"/>
<path d="M186.273 145.673C186.273 145.575 158.31 144.836 155.799 144.689C154.962 144.639 154.125 144.59 153.288 144.787C149.153 145.575 145.559 153.944 143.59 157.193C140.488 162.362 137.781 167.827 135.565 173.439C135.368 173.981 135.122 174.621 135.418 175.113C135.762 175.704 136.55 175.802 137.288 175.802C147.922 176.098 158.556 175.753 169.14 174.719C169.83 174.67 170.568 174.572 171.208 174.227C171.996 173.784 172.488 172.996 172.931 172.258C178.051 163.79 182.531 154.879 186.273 145.673Z" fill="#C5D2D8"/>
<path d="M189.079 164.529C188.98 164.676 188.931 164.824 188.833 165.021C188.488 165.71 188.193 166.399 187.651 166.941C186.962 167.729 185.928 168.172 184.993 168.615C181.448 170.239 177.903 171.815 174.359 173.439C173.473 173.833 172.488 174.276 171.503 174.079C175.59 167.039 178.79 159.605 182.236 152.221C186.076 143.901 192.476 137.993 199.516 132.381C199.713 132.233 199.909 132.086 200.106 132.036C200.943 131.938 201.091 133.169 200.845 134.006C197.94 144.689 193.854 154.633 189.079 164.529Z" fill="#C5D2D8"/>
<path d="M167.812 147.741C167.122 147.741 166.433 147.741 165.842 148.135C165.399 148.43 165.104 148.922 164.858 149.415C160.821 156.652 157.227 164.135 154.027 171.815C153.83 172.307 153.682 172.947 154.076 173.292C154.322 173.439 154.618 173.439 154.864 173.439C157.965 173.292 161.018 173.144 164.119 172.947C166.729 172.799 169.092 173.39 170.962 171.175C171.996 169.993 172.538 168.467 173.079 167.039C175.393 160.984 177.658 154.929 179.972 148.873C180.021 148.725 180.07 148.578 180.07 148.43C180.021 147.938 179.381 147.692 178.888 147.741C175.295 148.036 171.455 147.692 167.812 147.741Z" fill="#9CB3BC"/>
<path d="M187.848 146.559C186.421 147.987 185.682 150.252 184.796 152.024C183.713 154.141 182.63 156.258 181.547 158.326C179.381 162.559 177.214 166.744 175.048 170.978C177.51 169.944 179.922 168.861 182.334 167.778C183.762 167.138 185.19 166.449 186.174 165.267C187.061 164.184 187.454 162.855 187.898 161.525C189.374 157.242 191.541 153.206 193.461 149.119C195.43 144.935 196.562 140.799 197.793 136.418C194.199 139.421 191.147 143.162 187.848 146.559Z" fill="#282633"/>
<path d="M88.3538 90.8796C86.0892 90.8304 83.8246 90.2396 81.8061 89.2058C81.2646 88.9104 80.7231 89.7473 81.3138 90.0427C83.48 91.175 85.8923 91.815 88.3538 91.8642C88.9938 91.9134 88.9938 90.9288 88.3538 90.8796Z" fill="#EFA294"/>
<path d="M71.2704 182.498C67.775 176.639 62.9012 171.667 60.1935 165.365C59.1104 162.855 58.6181 160.147 57.8797 157.538C54.8274 146.166 48.0335 135.236 49.4612 123.52C50.1505 117.809 52.5627 113.821 56.5997 109.932C56.9935 109.587 57.3381 109.193 57.8797 109.046C58.815 108.8 59.7012 109.39 60.5381 109.932C66.5442 114.018 73.5842 115.347 79.7872 118.892C85.6949 122.289 90.7164 127.458 93.1779 133.907C94.1133 136.319 94.6056 138.879 95.541 141.341C97.0179 145.23 99.5287 148.529 102.286 151.581C105.584 155.224 108.784 159.31 113.116 161.772C114.002 162.264 115.036 162.805 115.43 163.79C115.922 165.119 114.987 166.547 113.806 167.285C112.624 168.024 111.196 168.27 109.916 168.91C106.667 170.584 105.19 174.325 104.009 177.772C102.827 181.218 101.596 185.008 98.5441 186.978C93.7687 190.03 87.1718 187.913 82.3965 190.965C81.4611 191.556 80.6242 192.442 79.4919 192.688C78.0149 193.033 76.4888 192.196 75.5534 190.965C74.618 189.784 74.1257 188.307 73.535 186.879C72.8457 185.353 72.1073 183.876 71.2704 182.498Z" fill="#EF752A"/>
<path d="M152.747 158.473C153.338 158.473 153.879 158.473 154.47 158.473C155.307 158.473 156.439 158.079 156.242 157.292C156.144 156.898 155.701 156.652 155.307 156.504C150.778 154.584 146.396 152.516 141.621 151.335C140.046 150.941 138.421 150.596 136.846 150.941C132.464 151.926 130.544 157.489 126.359 159.064C122.027 160.689 115.184 160.049 110.556 160.196C104.452 160.393 98.3965 160.393 92.2919 160.098C91.1104 160.049 89.9289 159.95 88.8458 159.556C86.5812 158.67 85.1535 156.455 83.972 154.338C80.2304 147.692 76.9812 140.849 73.2397 134.203C69.5966 127.655 63.7874 119.138 55.3198 119.68C49.609 120.024 49.2152 125.735 50.249 130.166C53.3998 144.098 60.1444 158.916 69.1536 170.092C70.5813 171.815 72.1566 173.488 74.1751 174.473C76.1935 175.458 78.5074 175.655 80.772 175.802C94.9504 176.59 109.276 174.867 122.864 170.781C129.806 168.713 137.042 169.205 143.984 167.384C144.476 167.236 145.067 167.039 145.313 166.596C145.559 166.153 145.166 165.365 144.673 165.513C145.855 165.316 147.036 165.07 148.267 164.873C148.907 164.775 149.596 164.627 150.089 164.184C150.581 163.741 150.778 162.904 150.335 162.412C149.695 161.722 148.415 162.264 147.676 161.722C149.202 161.821 150.679 161.722 152.206 161.476C152.796 161.378 153.485 161.132 153.633 160.541C153.732 160.098 153.436 159.704 153.092 159.409C152.255 158.621 151.024 158.227 149.842 158.375C150.827 158.473 151.762 158.473 152.747 158.473Z" fill="#F6D1BA"/>
<path d="M87.3196 151.482C87.3688 151.039 87.2212 150.646 86.8765 150.35C83.4796 147.052 82.0519 142.276 79.8366 138.092C76.7843 132.332 72.0581 127.655 67.4305 123.076C66.2982 121.944 65.1659 120.861 63.7382 120.123C60.7351 118.547 54.8275 118.695 52.0213 120.763C51.8736 120.861 51.7259 121.009 51.6275 121.107C50.2982 121.895 49.1659 123.076 48.6244 124.75C48.1321 126.178 48.329 127.803 48.5259 129.329C50.4459 141.981 54.2367 157.045 61.6213 167.729C66.8397 165.809 71.7628 166.35 76.6366 162.805C78.015 161.821 79.2458 160.689 80.4766 159.507C81.855 158.178 87.1227 153.993 87.3196 151.482Z" fill="#CA550D"/>
<path d="M84.1686 120.91C82.8886 116.972 78.7532 114.806 74.864 113.378C72.8948 112.689 70.4825 112.147 68.7102 111.064C66.544 109.735 64.9194 107.52 63.4425 105.55C63.2456 105.304 63.1963 105.009 63.0979 104.763C62.7533 103.384 62.4579 102.006 62.2117 100.578C59.9964 102.006 58.8148 104.861 57.5348 107.027C57.1902 107.618 56.8456 108.209 56.7471 108.898C56.6487 110.03 57.3871 111.015 58.1256 111.901C59.061 114.313 61.5717 116.381 64.4763 118.104C65.8056 119.04 67.1348 119.876 68.5132 120.763C71.7625 122.781 75.0117 124.849 78.3101 126.867C78.6055 124.209 78.704 121.55 78.6055 118.892C80.624 119.138 82.544 119.827 84.1686 120.91Z" fill="#CA550D"/>
<path d="M60.6858 82.7567C61.0305 84.0367 61.7689 85.0705 62.8028 86.4982C63.6397 87.6797 63.6889 89.2059 63.492 90.6336C63.2951 92.0612 62.9012 93.4397 62.9504 94.8674C62.9997 95.5074 62.9504 96.3935 62.3104 96.5905C61.7197 96.7381 61.2274 96.0981 61.0797 95.5566C60.1935 92.6028 57.1905 89.2059 55.172 86.892C52.0213 83.3967 54.9259 81.329 54.4828 77.489C54.3351 76.1598 53.3505 75.1259 52.7105 73.9936C50.9382 70.8921 51.7259 66.5598 54.4828 64.2952C56.7474 62.4245 60.0951 61.8337 61.8181 59.4706C62.3104 58.7814 62.6058 57.9937 63.0489 57.3045C67.135 50.7568 73.3381 56.1722 78.8027 56.1229C82.1011 56.0737 85.3011 53.4645 88.4026 54.5476C90.3226 55.1876 90.8642 57.0091 92.3903 57.9937C94.0149 59.0275 96.181 58.7814 97.6087 60.1106C98.938 61.3414 98.9872 63.5568 98.0518 65.0829C95.9841 68.4306 90.4703 67.0029 87.5657 65.8706C82.5934 63.9998 79.1965 63.4091 74.2242 65.4275C72.9442 65.9198 72.4027 67.446 72.2058 68.7752C72.0089 70.1044 72.0089 71.5813 71.3196 72.7629C70.8766 73.5013 70.1873 74.0429 69.7443 74.7321C67.6766 77.7844 71.5166 83.3474 69.9904 85.3659C69.5966 85.9074 68.6612 85.7597 68.2181 85.2182C67.775 84.6767 67.6766 83.9874 67.5289 83.2982C67.2827 82.0182 66.8889 80.7875 66.3474 79.6059C65.7566 78.3259 64.8212 76.9967 63.4427 76.8982C62.0151 76.7998 60.8335 78.1782 60.5874 79.6059C60.4397 80.9351 60.4397 81.9198 60.6858 82.7567Z" fill="#1E2F44"/>
<path d="M66.0519 88.6151C66.1503 88.6643 67.3811 81.2305 66.7411 80.1967C65.9042 78.8182 63.9842 77.7844 62.5565 77.1444C61.4734 76.6521 60.1934 76.4059 59.1104 76.8982C57.8796 77.489 57.2396 79.0151 57.4365 80.3936C57.6335 81.772 58.4211 83.0028 59.3073 84.0367C61.1288 86.1043 63.4919 87.6797 66.0519 88.6151Z" fill="#F6D1BA"/>
<path d="M82.1996 78.2767C83.0857 78.2767 83.0857 76.849 82.1996 76.849C81.2642 76.849 81.2642 78.2767 82.1996 78.2767Z" fill="#1E2F44"/>
<path d="M90.3226 78.2767C91.2088 78.2767 91.2088 76.849 90.3226 76.849C89.3872 76.849 89.3872 78.2767 90.3226 78.2767Z" fill="#1E2F44"/>
</svg>
